<?xml version="1.0" standalone="no"?>
<!DOCTYPE svg PUBLIC "-//W3C//DTD SVG 20010904//EN"
 "http://www.w3.org/TR/2001/REC-SVG-20010904/DTD/svg10.dtd">
<svg version="1.0" xmlns="http://www.w3.org/2000/svg"
 width="422.000000pt" height="251.000000pt" viewBox="0 0 422.000000 251.000000"
 preserveAspectRatio="xMidYMid meet">

<g transform="translate(0.000000,251.000000) scale(0.100000,-0.100000)"
fill="#0289b2" stroke="none">
<animate attributeName="fill" values="#0b628b;#0289b2;" dur="10s" repeatCount="indefinite" />
<path d="M234 2376 c-17 -7 -40 -26 -52 -41 l-22 -28 0 -683 0 -683 34 -35
c30 -32 39 -36 83 -36 59 0 98 25 119 76 21 49 21 1309 0 1357 -29 69 -100
101 -162 73z"/>
<path d="M742 2370 c-63 -39 -62 -23 -62 -740 0 -706 -1 -694 55 -738 37 -30
112 -30 149 -1 51 40 51 38 56 476 l5 413 255 -441 c192 -332 261 -444 282
-455 35 -18 91 -18 128 1 62 32 60 8 60 751 l0 676 -39 39 c-34 34 -44 39 -85
39 -39 0 -52 -6 -84 -34 l-37 -34 -5 -424 -5 -423 -53 90 c-30 50 -144 247
-255 439 -214 370 -226 386 -297 386 -19 0 -50 -9 -68 -20z"/>
<path d="M2276 2374 c-184 -44 -325 -191 -376 -390 -18 -68 -20 -111 -20 -354
0 -243 2 -286 20 -354 51 -199 186 -342 371 -391 63 -17 224 -19 289 -4 135
31 275 143 338 271 54 110 62 170 62 479 0 242 -2 285 -20 353 -51 202 -192
346 -381 391 -79 18 -205 18 -283 -1z m241 -249 c70 -21 135 -80 164 -152 23
-56 24 -66 24 -343 0 -320 -4 -346 -73 -422 -60 -66 -102 -83 -212 -83 -78 0
-102 4 -135 22 -54 29 -99 78 -127 138 -22 48 -23 63 -26 318 -3 251 -2 273
18 339 48 157 199 233 367 183z"/>
<path d="M3250 2377 c-13 -7 -35 -28 -47 -46 l-23 -35 2 -679 3 -679 37 -34
38 -34 386 0 386 0 33 33 c44 44 54 94 28 143 -37 71 -51 74 -375 74 l-288 0
0 90 0 90 220 0 c239 0 258 3 299 56 15 19 21 41 21 77 0 44 -4 53 -36 83
l-35 34 -232 2 -232 3 -3 293 -2 292 293 0 c290 0 295 0 328 23 48 32 68 91
48 143 -8 22 -29 48 -48 61 -34 23 -36 23 -405 23 -277 0 -377 -3 -396 -13z"/>
<path d="M745 513 c-15 -14 -17 -38 -13 -182 2 -91 7 -172 11 -178 10 -15 212
-18 221 -4 4 5 3 16 0 25 -4 12 -25 16 -87 18 -81 3 -82 3 -85 30 -3 27 -3 27
65 30 57 3 68 6 71 22 5 27 -15 36 -80 36 l-58 0 0 80 0 80 79 0 c60 0 82 4
92 16 24 29 -14 44 -112 44 -68 0 -91 -4 -104 -17z"/>
<path d="M1020 515 c-11 -13 -6 -33 29 -124 22 -59 41 -113 41 -120 0 -6 -9
-29 -20 -51 -24 -48 -25 -69 -3 -77 11 -4 24 3 39 22 21 27 22 27 28 7 8 -25
43 -39 59 -23 7 7 3 27 -15 68 l-25 58 34 85 c19 47 39 93 44 102 12 23 12 55
0 62 -21 13 -41 -9 -68 -76 -15 -38 -32 -69 -38 -69 -5 1 -24 34 -42 73 -34
78 -43 87 -63 63z"/>
<path d="M1311 516 c-8 -9 -11 -69 -9 -192 3 -166 4 -179 22 -182 25 -5 36 14
36 66 l0 42 49 0 c78 0 151 68 151 140 0 37 -42 103 -75 119 -42 20 -159 25
-174 7z m164 -71 c31 -30 32 -73 4 -109 -17 -22 -28 -26 -70 -26 l-49 0 0 80
0 80 45 0 c35 0 52 -6 70 -25z"/>
<path d="M1631 517 c-13 -13 -15 -345 -3 -364 8 -13 192 -21 211 -9 6 4 11 16
11 27 0 17 -8 19 -85 19 l-85 0 0 30 c0 29 0 29 68 32 61 3 67 5 70 26 2 12
-1 23 -7 23 -6 1 -15 3 -21 4 -5 1 -32 3 -60 4 l-50 1 0 80 0 80 79 0 c60 0
82 4 92 16 11 14 10 18 -6 31 -24 17 -197 17 -214 0z"/>
<path d="M1933 524 c-10 -4 -13 -53 -13 -196 l0 -189 23 3 c19 3 22 10 25 56
3 46 6 52 25 52 15 0 34 -18 61 -55 58 -81 110 -73 62 10 -31 52 -32 61 -7 68
36 9 63 66 58 125 -4 58 -30 96 -82 117 -31 12 -130 18 -152 9z m155 -74 c31
-29 36 -62 17 -99 -18 -36 -26 -41 -75 -42 -61 -2 -60 -4 -60 74 0 41 3 77 7
80 15 16 90 7 111 -13z"/>
<path d="M2220 515 c-19 -22 5 -45 46 -45 l34 0 1 -145 c1 -80 2 -149 3 -154
2 -19 25 -34 40 -28 14 5 16 30 16 167 l0 160 39 0 c46 0 70 22 51 45 -10 12
-36 15 -115 15 -79 0 -105 -3 -115 -15z"/>
<path d="M2732 519 c-80 -17 -126 -114 -88 -187 25 -47 62 -74 110 -79 53 -6
75 -25 56 -48 -9 -11 -33 -15 -87 -15 -58 0 -75 -3 -80 -16 -11 -29 14 -38 99
-36 76 1 85 4 106 27 53 61 6 145 -81 145 -32 1 -46 6 -59 24 -29 40 -27 78 7
111 20 21 34 25 80 25 40 0 57 4 61 15 15 37 -39 52 -124 34z"/>
<path d="M2952 522 c-9 -7 -12 -52 -10 -193 l3 -184 110 0 c103 0 110 1 110
20 0 18 -8 20 -85 25 -83 5 -85 6 -85 30 0 24 3 25 62 28 69 3 94 20 68 46
-12 11 -35 16 -76 16 l-60 0 3 78 3 77 83 3 c87 3 108 15 82 47 -9 11 -35 15
-104 15 -50 0 -97 -4 -104 -8z"/>
<path d="M3315 518 c-59 -21 -109 -88 -100 -134 2 -10 4 -26 4 -36 1 -9 16
-32 35 -52 32 -32 51 -40 126 -49 8 -1 16 -12 18 -24 4 -26 -12 -32 -108 -35
-57 -3 -65 -5 -65 -23 0 -18 8 -20 79 -23 97 -4 131 9 146 53 20 61 -26 115
-98 115 -39 0 -70 27 -78 66 -5 24 0 37 19 60 21 24 35 29 83 34 52 4 59 8 62
28 2 12 2 22 0 23 -37 7 -100 6 -123 -3z"/>
<path d="M2511 506 c-13 -16 -14 -335 -1 -356 4 -7 16 -10 26 -8 18 3 19 16
22 191 2 178 2 187 -17 187 -10 0 -24 -6 -30 -14z"/>
</g>
</svg>
