<?xml version="1.0" standalone="no"?>
<!DOCTYPE svg PUBLIC "-//W3C//DTD SVG 20010904//EN"
 "http://www.w3.org/TR/2001/REC-SVG-20010904/DTD/svg10.dtd">
<svg version="1.0" xmlns="http://www.w3.org/2000/svg"
 width="422.000000pt" height="500.000000pt" viewBox="0 0 422.000000 500.000000"
 preserveAspectRatio="xMidYMid meet">

<g transform="translate(0.000000,500.000000) scale(0.100000,-0.100000)"
fill="#000000" stroke="none">
<path d="M1018 4790 c-15 -4 -40 -21 -55 -36 l-28 -28 -3 -373 -3 -372 33 -5
c18 -3 89 -13 158 -22 138 -18 186 -37 223 -86 63 -85 62 -72 67 -458 l5 -355
70 -6 c39 -4 150 -7 247 -8 l177 -1 3 453 3 452 30 54 c52 94 52 94 486 161
210 33 387 60 391 60 4 0 8 36 8 81 0 93 -16 136 -59 162 -22 13 -427 96 -593
122 -18 3 -269 50 -558 104 -289 55 -536 102 -550 104 -14 3 -37 1 -52 -3z"/>
<path d="M3210 4208 c-36 -6 -67 -13 -70 -17 -3 -4 -23 -7 -45 -8 -22 0 -56
-4 -75 -8 -19 -4 -55 -9 -80 -12 -25 -3 -49 -9 -55 -13 -5 -4 -32 -6 -58 -4
-26 2 -45 0 -42 -5 3 -5 -4 -7 -15 -4 -11 3 -28 2 -37 -2 -10 -3 -44 -8 -75
-10 -32 -3 -66 -9 -76 -14 -10 -6 -29 -7 -42 -4 -17 5 -21 3 -15 -7 6 -9 -2
-11 -34 -5 -23 4 -41 3 -41 -2 0 -9 -25 -12 -108 -13 -18 0 -31 -4 -28 -9 4
-5 -12 -7 -36 -4 -38 6 -41 4 -34 -13 6 -15 5 -17 -5 -6 -14 13 -53 17 -46 5
3 -5 -22 -8 -54 -9 -35 -1 -65 -6 -72 -14 -10 -10 -9 -11 3 -5 13 7 13 6 1 -6
-9 -10 -15 -10 -18 -3 -2 7 -16 1 -34 -15 -26 -23 -27 -26 -12 -33 16 -6 15
-7 -3 -7 -12 -1 -24 -8 -28 -16 -3 -8 0 -14 6 -12 6 1 13 -4 15 -11 3 -8 -1
-10 -11 -6 -14 6 -16 -37 -16 -441 0 -267 4 -444 9 -441 5 4 4 -7 -2 -23 -9
-24 -8 -32 6 -46 22 -21 22 -31 0 -14 -15 12 -16 12 -9 -6 11 -32 50 -84 65
-90 8 -3 19 0 25 6 8 9 6 10 -7 6 -11 -4 -16 -3 -12 4 9 14 30 6 30 -12 0 -20
1196 -21 1203 -1 3 10 7 10 17 2 16 -13 55 3 55 21 0 6 6 9 13 6 8 -3 14 0 14
7 0 9 -9 9 -33 2 -21 -7 -29 -13 -21 -18 7 -4 8 -8 2 -8 -5 0 -17 5 -25 10
-13 9 -13 10 0 10 13 0 13 1 0 10 -11 7 -6 8 18 4 19 -4 32 -2 32 4 0 6 11 9
25 7 31 -3 51 25 32 44 -9 10 -8 11 6 6 16 -7 17 23 17 549 0 364 -3 556 -10
556 -5 0 -10 8 -10 18 0 15 2 15 11 2 8 -11 9 -8 4 15 -8 35 -22 55 -40 55 -7
0 -16 7 -19 16 -6 15 -4 15 11 3 16 -12 16 -11 0 8 -11 12 -26 21 -35 21 -10
0 -28 2 -42 5 -14 2 -54 0 -90 -5z m-150 -42 c0 -11 -19 -15 -25 -6 -3 5 1 10
9 10 9 0 16 -2 16 -4z m55 -6 c-3 -5 -16 -10 -28 -9 -21 0 -21 1 -2 9 28 12
37 12 30 0z m-148 -16 c-3 -3 -12 -4 -19 -1 -8 3 -5 6 6 6 11 1 17 -2 13 -5z
m63 2 c0 -3 -4 -8 -10 -11 -5 -3 -10 -1 -10 4 0 6 5 11 10 11 6 0 10 -2 10 -4z
m86 -13 c-2 -2 -23 -6 -47 -8 -30 -2 -37 -1 -24 5 20 8 79 11 71 3z m293 -16
c0 -9 -2 -8 -6 1 -2 6 -10 9 -15 6 -7 -4 -8 -2 -4 5 9 13 26 5 25 -12z m-804
-26 c-3 -6 -11 -11 -17 -11 -6 0 -6 6 2 15 14 17 26 13 15 -4z m-130 -11 c-3
-5 2 -10 11 -10 10 0 15 -3 11 -6 -10 -10 -39 5 -32 16 3 5 8 10 11 10 3 0 2
-4 -1 -10z m77 -13 c-7 -8 -9 -17 -5 -20 3 -4 -1 -7 -11 -7 -17 0 -15 11 9 36
14 16 20 8 7 -9z m-118 7 c16 -6 12 -24 -5 -24 -6 0 -7 5 -3 12 5 8 2 9 -9 5
-10 -3 -17 -2 -17 3 0 11 11 13 34 4z m-147 -20 c-3 -3 -12 -4 -19 -1 -8 3 -5
6 6 6 11 1 17 -2 13 -5z m113 -4 c18 -12 2 -12 -25 0 -13 6 -15 9 -5 9 8 0 22
-4 30 -9z m1008 -488 c-1 -268 -4 -426 -5 -352 -7 339 -7 848 0 843 4 -2 6
-223 5 -491z m-1336 431 c-6 -3 -9 -10 -6 -16 5 -8 2 -8 -7 1 -18 17 -34 15
-19 -3 7 -9 8 -15 2 -15 -11 0 -23 25 -16 33 3 2 17 4 32 4 15 0 21 -2 14 -4z
m-80 -660 c2 -143 0 -259 -4 -256 -5 2 -7 185 -6 406 1 221 4 337 5 257 2 -80
4 -263 5 -407z m1382 -347 c-3 -7 2 -20 10 -29 15 -15 12 -27 -7 -27 -6 0 -7
3 -4 6 3 4 2 15 -4 26 -5 10 -7 23 -4 28 9 15 15 12 9 -4z m40 6 c3 -5 -1 -9
-9 -9 -8 0 -12 4 -9 9 3 4 7 8 9 8 2 0 6 -4 9 -8z m-1337 -87 c0 -10 -10 -15
-31 -14 -21 1 -25 3 -11 6 11 3 24 9 30 14 12 12 12 12 12 -6z"/>
<path d="M776 3889 c-56 -44 -56 -42 -56 -504 0 -466 0 -464 59 -520 l32 -30
212 -3 c239 -4 258 0 300 67 22 35 22 43 25 423 3 403 0 442 -39 492 -34 43
-72 56 -232 76 -202 26 -266 26 -301 -1z"/>
<path d="M221 2593 c-76 -39 -71 11 -71 -746 0 -442 3 -684 10 -696 34 -65
133 -83 189 -35 17 14 35 42 41 62 8 25 10 247 8 694 l-3 658 -35 34 c-44 44
-92 53 -139 29z"/>
<path d="M732 2590 c-63 -39 -62 -23 -62 -740 0 -706 -1 -694 55 -738 37 -30
112 -30 149 -1 51 40 51 38 56 476 l5 412 245 -426 c135 -234 258 -438 273
-454 23 -23 37 -29 73 -29 25 0 58 7 74 15 62 32 60 9 60 745 0 604 -2 675
-16 700 -23 38 -64 60 -113 60 -33 0 -49 -7 -79 -34 l-37 -34 -5 -424 -5 -423
-41 70 c-37 62 -103 176 -388 669 -86 149 -113 176 -176 176 -19 0 -50 -9 -68
-20z"/>
<path d="M2268 2594 c-173 -41 -295 -156 -367 -343 -25 -64 -25 -73 -29 -366
-3 -241 0 -314 12 -373 41 -197 182 -353 364 -403 83 -24 234 -25 317 -4 178
47 324 203 370 396 18 78 21 579 4 675 -17 95 -81 216 -150 285 -68 68 -169
122 -258 139 -73 14 -194 11 -263 -6z m241 -250 c71 -21 141 -90 167 -165 17
-48 19 -85 19 -334 0 -315 -5 -341 -73 -417 -60 -66 -102 -83 -212 -83 -110 0
-152 17 -212 83 -68 76 -73 102 -73 417 0 251 2 285 19 330 10 28 28 62 38 78
64 91 200 129 327 91z"/>
<path d="M3245 2601 c-11 -5 -31 -21 -45 -36 l-25 -27 -3 -674 c-3 -742 -4
-721 57 -757 26 -15 69 -17 409 -17 370 0 380 1 406 21 58 45 69 114 30 175
-34 50 -58 54 -369 54 l-285 0 0 89 0 90 233 3 c214 3 234 5 259 23 35 26 48
56 48 110 0 35 -6 52 -29 77 l-29 33 -239 5 -238 5 -3 293 -2 292 293 0 c290
0 295 0 328 23 39 26 66 89 55 130 -3 15 -19 42 -35 60 l-29 32 -384 2 c-211
1 -392 -2 -403 -6z"/>
<path d="M732 738 c-8 -8 -12 -61 -12 -184 0 -211 -4 -204 116 -204 88 0 124
10 124 35 0 18 -25 24 -110 27 -62 3 -65 4 -68 30 -3 27 -3 27 65 30 65 3 68
4 68 28 0 24 -3 25 -67 28 l-68 3 0 79 0 80 78 0 c88 0 113 10 96 37 -9 15
-28 18 -110 21 -69 2 -103 -1 -112 -10z"/>
<path d="M1013 743 c-21 -8 -15 -37 28 -143 l41 -101 -22 -54 c-12 -30 -20
-62 -16 -70 9 -26 45 -18 57 13 l11 27 14 -27 c15 -28 47 -37 59 -17 4 5 -3
37 -15 70 l-23 60 42 104 c45 109 49 140 16 140 -15 0 -27 -18 -51 -73 -17
-40 -35 -74 -39 -75 -5 -1 -22 31 -39 72 -31 74 -39 84 -63 74z"/>
<path d="M1301 736 c-8 -9 -11 -69 -9 -192 l3 -179 25 0 c23 0 25 4 28 53 l3
52 47 0 c155 0 208 193 71 262 -42 22 -151 25 -168 4z m148 -61 c48 -24 56
-81 16 -120 -18 -19 -35 -25 -70 -25 l-45 0 0 80 0 80 35 0 c20 0 49 -7 64
-15z"/>
<path d="M1622 738 c-8 -8 -12 -64 -12 -184 0 -211 -4 -204 119 -204 93 0 130
13 118 44 -5 13 -22 16 -92 16 l-85 0 0 30 c0 29 0 29 68 32 60 3 67 5 70 25
4 27 -25 37 -93 31 l-45 -3 0 82 0 83 84 0 c68 0 85 3 90 16 13 34 -12 44
-113 44 -62 0 -101 -4 -109 -12z"/>
<path d="M1911 731 c-10 -18 -14 -333 -4 -358 3 -7 16 -13 29 -13 21 0 23 5
26 53 2 43 6 52 23 55 14 1 31 -14 59 -53 40 -55 71 -70 82 -40 4 9 -6 34 -22
56 l-28 41 31 27 c40 34 55 65 55 112 -1 86 -70 139 -180 139 -50 0 -63 -4
-71 -19z m162 -61 c33 -26 41 -63 23 -99 -18 -34 -33 -41 -92 -41 l-44 0 0 80
0 80 44 0 c28 0 52 -7 69 -20z"/>
<path d="M2210 735 c-21 -26 -4 -45 40 -45 l40 0 0 -152 c0 -84 4 -159 9 -166
5 -8 17 -12 27 -10 18 3 19 16 22 166 l2 162 44 0 c47 0 67 20 45 46 -17 21
-212 20 -229 -1z"/>
<path d="M2505 734 c-12 -13 -15 -46 -15 -179 0 -90 3 -170 6 -179 3 -9 17
-16 30 -16 l24 0 0 189 c0 157 -2 190 -15 195 -8 3 -21 -2 -30 -10z"/>
<path d="M2716 740 c-61 -19 -101 -80 -93 -145 8 -73 49 -113 126 -124 37 -5
47 -10 49 -28 4 -26 -12 -32 -103 -35 -53 -3 -60 -6 -63 -25 -4 -27 29 -35
117 -29 80 6 111 31 111 87 0 49 -44 89 -99 89 -70 0 -106 77 -62 131 14 18
31 23 80 27 66 5 84 19 61 47 -14 16 -77 19 -124 5z"/>
<path d="M2930 730 c-13 -24 -12 -340 0 -361 7 -10 35 -15 99 -17 95 -4 135 7
129 36 -3 14 -19 18 -88 22 -83 5 -85 6 -85 30 0 24 4 25 60 28 69 4 89 15 74
43 -8 16 -21 19 -74 19 l-65 0 0 80 0 80 85 0 c67 0 87 3 91 15 14 34 -14 45
-117 45 -88 0 -99 -2 -109 -20z"/>
<path d="M3281 729 c-51 -26 -87 -91 -77 -141 13 -67 74 -118 141 -118 39 0
55 -21 35 -45 -9 -11 -31 -15 -80 -14 -72 2 -90 -4 -90 -26 0 -21 33 -35 83
-35 98 0 144 24 153 81 9 52 -25 87 -94 98 -61 9 -79 23 -88 67 -4 24 0 37 19
60 21 24 35 29 83 34 55 5 59 7 59 30 0 23 -4 25 -50 28 -36 2 -63 -4 -94 -19z"/>
</g>
</svg>
